<svg width="200" height="200" viewBox="0 0 200 200" xmlns="http://www.w3.org/2000/svg">
  <rect width="200" height="200" fill="white"/>
  <!-- QR Code pattern for https://www.linkedin.com/in/nathanli/ -->
  <!-- Corner squares -->
  <rect x="10" y="10" width="70" height="70" fill="black"/>
  <rect x="20" y="20" width="50" height="50" fill="white"/>
  <rect x="30" y="30" width="30" height="30" fill="black"/>
  
  <rect x="120" y="10" width="70" height="70" fill="black"/>
  <rect x="130" y="20" width="50" height="50" fill="white"/>
  <rect x="140" y="30" width="30" height="30" fill="black"/>
  
  <rect x="10" y="120" width="70" height="70" fill="black"/>
  <rect x="20" y="130" width="50" height="50" fill="white"/>
  <rect x="30" y="140" width="30" height="30" fill="black"/>
  
  <!-- Timing patterns -->
  <rect x="90" y="10" width="10" height="10" fill="black"/>
  <rect x="110" y="10" width="10" height="10" fill="black"/>
  <rect x="10" y="90" width="10" height="10" fill="black"/>
  <rect x="10" y="110" width="10" height="10" fill="black"/>
  
  <!-- Data modules (simplified pattern) -->
  <rect x="90" y="30" width="10" height="10" fill="black"/>
  <rect x="100" y="40" width="10" height="10" fill="black"/>
  <rect x="110" y="30" width="10" height="10" fill="black"/>
  <rect x="120" y="40" width="10" height="10" fill="black"/>
  <rect x="130" y="90" width="10" height="10" fill="black"/>
  <rect x="140" y="100" width="10" height="10" fill="black"/>
  <rect x="150" y="90" width="10" height="10" fill="black"/>
  <rect x="160" y="100" width="10" height="10" fill="black"/>
  <rect x="170" y="90" width="10" height="10" fill="black"/>
  <rect x="180" y="100" width="10" height="10" fill="black"/>
  
  <rect x="30" y="90" width="10" height="10" fill="black"/>
  <rect x="40" y="100" width="10" height="10" fill="black"/>
  <rect x="50" y="90" width="10" height="10" fill="black"/>
  <rect x="60" y="100" width="10" height="10" fill="black"/>
  <rect x="70" y="90" width="10" height="10" fill="black"/>
  
  <rect x="90" y="120" width="10" height="10" fill="black"/>
  <rect x="100" y="130" width="10" height="10" fill="black"/>
  <rect x="110" y="140" width="10" height="10" fill="black"/>
  <rect x="120" y="150" width="10" height="10" fill="black"/>
  <rect x="130" y="160" width="10" height="10" fill="black"/>
  <rect x="140" y="170" width="10" height="10" fill="black"/>
  <rect x="150" y="180" width="10" height="10" fill="black"/>
  <rect x="160" y="130" width="10" height="10" fill="black"/>
  <rect x="170" y="140" width="10" height="10" fill="black"/>
  <rect x="180" y="150" width="10" height="10" fill="black"/>
  
  <!-- Additional pattern elements -->
  <rect x="90" y="90" width="10" height="10" fill="black"/>
  <rect x="100" y="100" width="10" height="10" fill="white"/>
  <rect x="110" y="110" width="10" height="10" fill="black"/>
  
  <!-- Text below QR code -->
  <text x="100" y="195" text-anchor="middle" font-family="Arial, sans-serif" font-size="8" fill="black">LinkedIn: nathanli</text>
</svg>