<svg xmlns="http://www.w3.org/2000/svg" viewBox="0 0 100 100">
  <!-- Graduation Cap -->
  <defs>
    <linearGradient id="capGradient" x1="0%" y1="0%" x2="100%" y2="100%">
      <stop offset="0%" style="stop-color:#1e40af;stop-opacity:1" />
      <stop offset="100%" style="stop-color:#3b82f6;stop-opacity:1" />
    </linearGradient>
    <linearGradient id="boardGradient" x1="0%" y1="0%" x2="100%" y2="100%">
      <stop offset="0%" style="stop-color:#1f2937;stop-opacity:1" />
      <stop offset="100%" style="stop-color:#374151;stop-opacity:1" />
    </linearGradient>
  </defs>
  
  <!-- Graduation cap board -->
  <polygon points="20,40 80,40 85,45 15,45" fill="url(#boardGradient)" />
  
  <!-- Cap top -->
  <ellipse cx="50" cy="42.5" rx="32" ry="6" fill="url(#capGradient)" />
  
  <!-- Tassel -->
  <line x1="80" y1="40" x2="88" y2="25" stroke="#fbbf24" stroke-width="2" />
  <circle cx="88" cy="25" r="3" fill="#fbbf24" />
  
  <!-- University building silhouette -->
  <rect x="25" y="55" width="50" height="30" fill="url(#boardGradient)" />
  <rect x="30" y="60" width="8" height="20" fill="#e5e7eb" />
  <rect x="40" y="60" width="8" height="20" fill="#e5e7eb" />
  <rect x="52" y="60" width="8" height="20" fill="#e5e7eb" />
  <rect x="62" y="60" width="8" height="20" fill="#e5e7eb" />
  
  <!-- Dome/Clock tower -->
  <rect x="45" y="45" width="10" height="15" fill="url(#boardGradient)" />
  <ellipse cx="50" cy="47" rx="7" ry="4" fill="url(#capGradient)" />
  
  <!-- Steps -->
  <rect x="20" y="80" width="60" height="3" fill="#9ca3af" />
  <rect x="22" y="83" width="56" height="3" fill="#6b7280" />
  
  <!-- QUT colors accent -->
  <circle cx="50" cy="92" r="2" fill="#fbbf24" />
</svg>